# xmcd
#
# Track frame offsets:
#	150
#	18654
#	61704
#	82554
#	99654
#	127985
#
# Disc length: 1994 seconds
#
# Revision: 1
# Processed by: cddbd v1.5.2PL0 Copyright (c) Steve Scherf et al.
# Submitted via: audiograbber 1.83.01
#
DISCID=3a07c806
DTITLE=STOMPIN' HEAT - live at stummsche reithalle
DYEAR=2018
DGENRE=Blues
TTITLE0=Don't Owe You A Thang
TTITLE1=Roadhouse Blues
TTITLE2=Next Door Neighbour Blues
TTITLE3=Anytime You Want
TTITLE4=Bullfrog Blues
TTITLE5=Give Me Back My Wig
EXTD=
EXTT0=
EXTT1=
EXTT2=
EXTT3=
EXTT4=
EXTT5=
PLAYORDER=
